# xmcd
#
# Track frame offsets: 
#        150
#        17044
#        28838
#        44812
#        57828
#        74314
#        90838
#        103822
#        123506
#        137484
#        155022
#        167563
#        180872
#        197039
#        213483
#
# Disc length: 3089 seconds
#
# Revision: 0
# Processed by: cddbd v1.5.2PL0 Copyright (c) Steve Scherf et al.
# Submitted via: ExactAudioCopy v1.3
#
DISCID=cd0c0f0f
DTITLE=區瑞強 - 區瑞強
DYEAR=1900
DGENRE=Alt. Rock
TTITLE0=無言的結局
TTITLE1=又見月明
TTITLE2=溫情
TTITLE3=少年夢
TTITLE4=兩小無知
TTITLE5=青蔥
TTITLE6=水霞
TTITLE7=愛之園
TTITLE8=教堂鐘聲
TTITLE9=深秋立樓頭
TTITLE10=心裡的天虹
TTITLE11=雲外千峰
TTITLE12=再莫愚弄我
TTITLE13=我總是神不守舍
TTITLE14=當孩子降臨世上
EXTD=
EXTT0=
EXTT1=
EXTT2=
EXTT3=
EXTT4=
EXTT5=
EXTT6=
EXTT7=
EXTT8=
EXTT9=
EXTT10=
EXTT11=
EXTT12=
EXTT13=
EXTT14=
PLAYORDER=
